<svg width="100" height="100" viewBox="0 0 100 100" fill="none" xmlns="http://www.w3.org/2000/svg">
<path d="M53.2128 3.37954L58.2948 0.77606C61.5155 -0.874309 65.4627 0.184271 67.4275 3.22329L70.5271 8.01815C71.7575 9.92242 73.8298 11.1177 76.0934 11.231L81.7945 11.5181C85.4097 11.6997 88.2983 14.5903 88.4799 18.2036L88.7671 23.9047C88.8803 26.1683 90.0776 28.2405 91.9799 29.471L96.7748 32.5705C99.8138 34.5354 100.872 38.4826 99.222 41.7032L96.6205 46.7872C95.5873 48.8047 95.5873 51.1972 96.6205 53.2148L99.2239 58.2968C100.874 61.5174 99.8157 65.4646 96.7767 67.4295L91.9819 70.529C90.0776 71.7595 88.8823 73.8317 88.769 76.0953L88.4819 81.7964C88.3003 85.4116 85.4097 88.3003 81.7964 88.4819L76.0953 88.769C73.8317 88.8823 71.7595 90.0795 70.529 91.9818L67.4295 96.7767C65.4646 99.8157 61.5174 100.874 58.2968 99.2239L53.2148 96.6205C51.1972 95.5873 48.8047 95.5873 46.7872 96.6205L41.7052 99.2239C38.4845 100.874 34.5373 99.8157 32.5725 96.7767L29.4729 91.9818C28.2425 90.0776 26.1702 88.8823 23.9066 88.769L18.2055 88.4819C14.5903 88.3003 11.7017 85.4097 11.5201 81.7964L11.2329 76.0953C11.1197 73.8317 9.92242 71.7595 8.0201 70.529L3.22329 67.4275C0.184271 65.4646 -0.874308 61.5155 0.77606 58.2948L3.37954 53.2128C4.41273 51.1953 4.41273 48.8027 3.37954 46.7852L0.77606 41.7052C-0.874308 38.4845 0.184271 34.5373 3.22329 32.5725L8.01815 29.4729C9.92242 28.2425 11.1177 26.1702 11.231 23.9066L11.5181 18.2055C11.6997 14.5903 14.5903 11.7017 18.2036 11.5201L23.9047 11.2329C26.1683 11.1197 28.2405 9.92242 29.471 8.0201L32.5705 3.22524C34.5354 0.186224 38.4826 -0.872355 41.7032 0.778013L46.7852 3.38149C48.8047 4.41468 51.1953 4.41468 53.2128 3.37954Z" fill="#295FCC"/>
<path d="M40.9614 62.4688H47.8688V44.3201C47.8688 43.4314 47.8933 42.5014 47.9423 41.53L43.872 44.9131C43.6084 45.1277 43.3448 45.2802 43.0831 45.3706C42.8196 45.4609 42.5654 45.5061 42.3188 45.5061C41.8914 45.5061 41.5093 45.412 41.1723 45.2218C40.8353 45.0336 40.5849 44.8302 40.4192 44.6175L38 41.4076L49.2018 32H55.518V62.4688H61.439V68H40.9614V62.4688Z" fill="white"/>
</svg>
