<svg width="100" height="100" viewBox="0 0 100 100" fill="none" xmlns="http://www.w3.org/2000/svg">
<g id="Property 1=Seller Level 02">
<path id="Vector" d="M53.2129 3.37954L58.2948 0.77606C61.5155 -0.874309 65.4627 0.184271 67.4275 3.22329L70.5271 8.01815C71.7575 9.92242 73.8298 11.1177 76.0934 11.231L81.7945 11.5181C85.4097 11.6997 88.2983 14.5903 88.48 18.2036L88.7671 23.9047C88.8803 26.1683 90.0776 28.2405 91.9799 29.471L96.7748 32.5705C99.8138 34.5354 100.872 38.4826 99.222 41.7032L96.6205 46.7872C95.5873 48.8047 95.5873 51.1972 96.6205 53.2148L99.224 58.2968C100.874 61.5174 99.8157 65.4646 96.7767 67.4295L91.9819 70.529C90.0776 71.7595 88.8823 73.8317 88.769 76.0953L88.4819 81.7964C88.3003 85.4116 85.4097 88.3003 81.7965 88.4819L76.0954 88.769C73.8317 88.8823 71.7595 90.0795 70.529 91.9818L67.4295 96.7767C65.4646 99.8157 61.5174 100.874 58.2968 99.2239L53.2148 96.6205C51.1973 95.5873 48.8047 95.5873 46.7872 96.6205L41.7052 99.2239C38.4845 100.874 34.5373 99.8157 32.5725 96.7767L29.4729 91.9818C28.2425 90.0776 26.1702 88.8823 23.9066 88.769L18.2055 88.4819C14.5903 88.3003 11.7017 85.4097 11.5201 81.7964L11.233 76.0953C11.1197 73.8317 9.92242 71.7595 8.0201 70.529L3.22329 67.4275C0.184271 65.4646 -0.874309 61.5155 0.77606 58.2948L3.37954 53.2128C4.41273 51.1953 4.41273 48.8027 3.37954 46.7852L0.77606 41.7052C-0.874309 38.4845 0.184271 34.5373 3.22329 32.5725L8.01815 29.4729C9.92242 28.2425 11.1177 26.1702 11.231 23.9066L11.5181 18.2055C11.6997 14.5903 14.5903 11.7017 18.2036 11.5201L23.9047 11.2329C26.1683 11.1197 28.2405 9.92242 29.471 8.0201L32.5706 3.22524C34.5354 0.186224 38.4826 -0.872355 41.7032 0.778013L46.7852 3.38149C48.8047 4.41468 51.1953 4.41468 53.2129 3.37954Z" fill="#295FCC"/>
<path id="Vector_2" d="M50.0994 32C51.8591 32 53.4427 32.2561 54.8524 32.7703C56.262 33.2826 57.4625 33.9962 58.4577 34.9092C59.4509 35.8223 60.2134 36.9094 60.7432 38.1724C61.2731 39.4354 61.537 40.8235 61.537 42.3388C61.537 43.6429 61.3532 44.8472 60.9876 45.9558C60.6201 47.0644 60.1195 48.1182 59.4841 49.1212C58.8487 50.1242 58.1116 51.0919 57.2729 52.0304C56.4341 52.9669 55.5406 53.9171 54.5963 54.8771L47.6321 62.0134C48.5275 61.7533 49.4112 61.5461 50.2832 61.3897C51.1552 61.2352 51.9725 61.157 52.7389 61.157H59.3864C60.2017 61.157 60.8449 61.3819 61.318 61.8296C61.7912 62.2773 62.0258 62.8678 62.0258 63.6009V68H37V65.5561C37 65.0829 37.0978 64.5785 37.2933 64.0408C37.4888 63.5032 37.8309 63.0144 38.3197 62.5745L48.5842 52.2357C49.464 51.3559 50.2304 50.5171 50.8815 49.7194C51.5326 48.9217 52.0702 48.1358 52.4945 47.3615C52.9188 46.5873 53.2355 45.8131 53.4486 45.0388C53.6597 44.2646 53.7653 43.4473 53.7653 42.5832C53.7653 41.1657 53.4271 40.0786 52.7506 39.32C52.0741 38.5615 51.0438 38.1841 49.6595 38.1841C49.0886 38.1841 48.5686 38.2662 48.0954 38.4285C47.6223 38.5908 47.2 38.8117 46.8246 39.0893C46.4492 39.367 46.1286 39.6915 45.8587 40.0669C45.5889 40.4423 45.3739 40.849 45.2116 41.2889C44.9516 42.022 44.6211 42.5519 44.2223 42.8764C43.8234 43.203 43.2819 43.3652 42.5976 43.3652C42.4353 43.3652 42.2593 43.3574 42.0716 43.3418C41.8839 43.3242 41.6923 43.2988 41.4968 43.2655L37.4888 42.5578C37.7488 40.7825 38.2493 39.234 38.9923 37.9143C39.7333 36.5946 40.6542 35.4938 41.7529 34.614C42.8517 33.7342 44.1128 33.0792 45.5283 32.6472C46.9478 32.217 48.4708 32 50.0994 32Z" fill="white"/>
</g>
</svg>
