<svg width="100" height="100" viewBox="0 0 100 100" fill="none" xmlns="http://www.w3.org/2000/svg">
<g id="Property 1=Seller Level 03">
<path id="Vector" d="M53.2128 3.37954L58.2948 0.77606C61.5155 -0.874309 65.4627 0.184271 67.4275 3.22329L70.5271 8.01815C71.7575 9.92242 73.8298 11.1177 76.0934 11.231L81.7945 11.5181C85.4097 11.6997 88.2983 14.5903 88.4799 18.2036L88.7671 23.9047C88.8803 26.1683 90.0776 28.2405 91.9799 29.471L96.7748 32.5705C99.8138 34.5354 100.872 38.4826 99.222 41.7032L96.6205 46.7872C95.5873 48.8047 95.5873 51.1972 96.6205 53.2148L99.2239 58.2968C100.874 61.5174 99.8157 65.4646 96.7767 67.4295L91.9819 70.529C90.0776 71.7595 88.8823 73.8317 88.769 76.0953L88.4819 81.7964C88.3003 85.4116 85.4097 88.3003 81.7964 88.4819L76.0953 88.769C73.8317 88.8823 71.7595 90.0795 70.529 91.9818L67.4295 96.7767C65.4646 99.8157 61.5174 100.874 58.2968 99.2239L53.2148 96.6205C51.1972 95.5873 48.8047 95.5873 46.7872 96.6205L41.7052 99.2239C38.4845 100.874 34.5373 99.8157 32.5725 96.7767L29.4729 91.9818C28.2425 90.0776 26.1702 88.8823 23.9066 88.769L18.2055 88.4819C14.5903 88.3003 11.7017 85.4097 11.5201 81.7964L11.2329 76.0953C11.1197 73.8317 9.92242 71.7595 8.0201 70.529L3.22329 67.4275C0.184271 65.4646 -0.874308 61.5155 0.77606 58.2948L3.37954 53.2128C4.41273 51.1953 4.41273 48.8027 3.37954 46.7852L0.77606 41.7052C-0.874308 38.4845 0.184271 34.5373 3.22329 32.5725L8.01815 29.4729C9.92242 28.2425 11.1177 26.1702 11.231 23.9066L11.5181 18.2055C11.6997 14.5903 14.5903 11.7017 18.2036 11.5201L23.9047 11.2329C26.1683 11.1197 28.2405 9.92242 29.471 8.0201L32.5705 3.22524C34.5354 0.186224 38.4826 -0.872355 41.7032 0.778013L46.7852 3.38149C48.8047 4.41468 51.1953 4.41468 53.2128 3.37954Z" fill="#295FCC"/>
<path id="Vector_2" d="M51.441 32C53.1818 32 54.7292 32.2456 56.0832 32.7369C57.4371 33.2282 58.5822 33.8936 59.5164 34.7311C60.4507 35.5687 61.1605 36.5416 61.6441 37.6441C62.1277 38.7485 62.3694 39.913 62.3694 41.1373C62.3694 42.2495 62.2573 43.2282 62.0309 44.0754C61.8046 44.9226 61.47 45.6557 61.0271 46.2766C60.5841 46.8975 60.0367 47.4255 59.383 47.8607C58.7292 48.2959 57.9845 48.6576 57.147 48.9478C61.0484 50.3017 62.9981 52.9536 62.9981 56.9014C62.9981 58.7718 62.6596 60.3985 61.9826 61.7853C61.3056 63.1721 60.3985 64.323 59.2631 65.2437C58.1277 66.1644 56.8085 66.8511 55.3095 67.3114C53.8104 67.7718 52.2476 68 50.619 68C48.942 68 47.4507 67.8182 46.147 67.4565C44.8433 67.0948 43.6809 66.53 42.6654 65.764C41.6499 64.9981 40.7582 64.0193 39.9942 62.8259C39.2282 61.6325 38.5629 60.2147 38 58.5706L41.3366 57.2166C41.6267 57.087 41.913 57 42.1954 56.9497C42.4778 56.9014 42.7544 56.8762 43.029 56.8762C43.5455 56.8762 44.0077 56.9768 44.4197 57.1779C44.8298 57.3791 45.1412 57.6731 45.3501 58.06C46.0754 59.3985 46.8453 60.3694 47.6596 60.9729C48.4739 61.5764 49.4275 61.8801 50.5242 61.8801C51.3617 61.8801 52.0909 61.7389 52.7118 61.4565C53.3327 61.1741 53.8491 60.8124 54.2592 60.3694C54.6692 59.9265 54.9807 59.4236 55.1896 58.8588C55.3985 58.294 55.5029 57.7215 55.5029 57.1412C55.5029 56.383 55.4507 55.7021 55.3462 55.0986C55.2418 54.4952 54.9478 53.9749 54.4642 53.5397C53.9807 53.1044 53.2515 52.7698 52.2766 52.5358C51.3017 52.3017 49.9439 52.1857 48.2031 52.1857V47.0135C49.6692 47.0135 50.8549 46.9014 51.7582 46.675C52.6615 46.4487 53.3578 46.1393 53.8491 45.7447C54.3404 45.3501 54.6673 44.8704 54.8279 44.3056C54.9884 43.7408 55.0696 43.1219 55.0696 42.4449C55.0696 41.058 54.735 39.9903 54.0658 39.2418C53.3965 38.4913 52.3772 38.118 51.0077 38.118C50.4429 38.118 49.9284 38.1992 49.4603 38.3598C48.9923 38.5203 48.5745 38.7389 48.2031 39.0135C47.8317 39.2882 47.5145 39.6093 47.2476 39.9807C46.9807 40.352 46.7679 40.7544 46.6074 41.1896C46.3501 41.9149 46.0232 42.4391 45.6286 42.7602C45.234 43.0832 44.6983 43.2437 44.0213 43.2437C43.8607 43.2437 43.6867 43.236 43.501 43.2205C43.3153 43.205 43.1257 43.1799 42.9323 43.147L38.9652 42.4449C39.2224 40.6886 39.7176 39.1567 40.4526 37.8511C41.1857 36.5455 42.0967 35.4565 43.1838 34.5861C44.2708 33.7157 45.5184 33.0677 46.9188 32.6402C48.323 32.2147 49.8298 32 51.441 32Z" fill="white"/>
</g>
</svg>
