<svg width="42" height="109" viewBox="0 0 42 109" fill="none" xmlns="http://www.w3.org/2000/svg">
<path d="M37.4814 68.7057C38.7629 76.1334 33.571 82.8336 30.3709 84.9776C27.1708 87.1217 17.4624 88.0812 11.9111 84.9776C6.35984 81.874 2.01085 77.8234 6.85175 68.7057C11.6926 59.588 8.68436 54.8021 3.02305 48.4683C-2.63827 42.1345 1.0537 29.4178 8.0824 26.4533C15.1111 23.4889 5.36566 16.7799 8.0824 8.5C10.7991 0.220059 15.9378 -0.139827 22.9689 1.43009C30 3 33.4813 7 33.4813 13.5653C33.4813 20.1306 28.4019 26.0431 35.8405 34.2475C43.2791 42.4518 42.9509 46.8712 40.2161 52.7072C37.4813 58.5432 36.1998 61.278 37.4814 68.7057Z" fill="#143066"/>
<path fill-rule="evenodd" clip-rule="evenodd" d="M21.7018 22.4441C21.4752 22.4441 21.2915 22.6278 21.2915 22.8543V51.9222L11.2566 34.1388C11.1453 33.9415 10.8951 33.8718 10.6978 33.9831C10.5005 34.0945 10.4308 34.3447 10.5421 34.542L21.2915 53.5916V73.0692L13.9379 64.9677C13.7856 64.8 13.5262 64.7874 13.3584 64.9397C13.1907 65.0919 13.1781 65.3514 13.3304 65.5191L21.2915 74.2899V108.59C21.2915 108.816 21.4752 109 21.7018 109C21.9283 109 22.112 108.816 22.112 108.59V68.6557L30.6511 56.5924C30.782 56.4075 30.7382 56.1515 30.5533 56.0206C30.3684 55.8897 30.1124 55.9335 29.9815 56.1184L22.112 67.2356V45.2715L29.5591 34.5748C29.6885 34.3888 29.6427 34.1332 29.4568 34.0037C29.2709 33.8743 29.0152 33.9201 28.8857 34.106L22.112 43.8356V22.8543C22.112 22.6278 21.9283 22.4441 21.7018 22.4441Z" fill="white" fill-opacity="0.3"/>
<path d="M21.0415 22.8543C21.0415 22.4897 21.3371 22.1941 21.7018 22.1941C22.0664 22.1941 22.362 22.4897 22.362 22.8543V43.039L28.6806 33.9632C28.8889 33.6639 29.3004 33.5902 29.5996 33.7986C29.8989 34.0069 29.9726 34.4184 29.7642 34.7176L22.362 45.35V66.4498L29.7774 55.9739C29.9881 55.6763 30.4002 55.6058 30.6978 55.8165C30.9954 56.0272 31.0659 56.4392 30.8552 56.7368L22.362 68.7352V108.59C22.362 108.954 22.0664 109.25 21.7018 109.25C21.3371 109.25 21.0415 108.954 21.0415 108.59V74.3864L13.1453 65.6872C12.9002 65.4172 12.9204 64.9996 13.1904 64.7546C13.4604 64.5095 13.8779 64.5297 14.123 64.7997L21.0415 72.4218V53.6573L10.3244 34.6648C10.1452 34.3473 10.2574 33.9446 10.5749 33.7654C10.8925 33.5862 11.2952 33.6984 11.4744 34.0159L21.0415 50.9704V22.8543Z" stroke="white" stroke-opacity="0.3" stroke-width="0.5" stroke-linecap="round"/>
</svg>
