<svg width="59" height="155" viewBox="0 0 59 155" fill="none" xmlns="http://www.w3.org/2000/svg">
<path d="M6.38652 98.0494C4.57522 108.547 11.9133 118.017 16.4362 121.048C20.9591 124.078 34.6807 125.434 42.5267 121.048C50.3727 116.661 56.5194 110.936 49.6774 98.0494C42.8355 85.1627 47.0873 78.3985 55.0888 69.4465C63.0903 60.4946 57.8722 42.5211 47.9381 38.3313C38.0039 34.1414 42.7977 18.9431 37.1153 11.8543C31.433 4.76544 25.7515 -2.75638 12.7643 2.96419C-0.222987 8.68476 2.5213 22.8084 6.38652 25.7692C10.2517 28.73 19.2192 37.7515 8.7057 49.3472C-1.80778 60.943 -1.34394 67.1893 2.5213 75.4377C6.38654 83.6861 8.19781 87.5513 6.38652 98.0494Z" fill="#295FCC"/>
<path fill-rule="evenodd" clip-rule="evenodd" d="M28.69 32.6647C29.0102 32.6647 29.2697 32.9243 29.2697 33.2445V74.3281L43.4528 49.1937C43.6101 48.9148 43.9638 48.8163 44.2426 48.9736C44.5215 49.131 44.62 49.4846 44.4626 49.7635L29.2697 76.6876V104.217L39.6631 92.7663C39.8784 92.5292 40.245 92.5114 40.4821 92.7266C40.7192 92.9418 40.737 93.3085 40.5218 93.5456L29.2697 105.942V154.42C29.2697 154.74 29.0102 155 28.69 155C28.3697 155 28.1102 154.74 28.1102 154.42V97.9787L16.0412 80.9288C15.8562 80.6675 15.9181 80.3056 16.1794 80.1206C16.4408 79.9356 16.8026 79.9975 16.9876 80.2589L28.1102 95.9717V64.9283L17.5847 49.8099C17.4017 49.5471 17.4664 49.1857 17.7292 49.0028C17.992 48.8198 18.3534 48.8845 18.5363 49.1473L28.1102 62.8988V33.2445C28.1102 32.9243 28.3697 32.6647 28.69 32.6647Z" fill="black" fill-opacity="0.3"/>
<path d="M29.5197 33.2445C29.5197 32.7862 29.1482 32.4147 28.69 32.4147C28.2317 32.4147 27.8602 32.7862 27.8602 33.2445V62.1022L18.7415 49.0045C18.4797 48.6284 17.9625 48.5357 17.5864 48.7976C17.2103 49.0594 17.1177 49.5766 17.3795 49.9527L27.8602 65.0067V95.1858L17.1917 80.1144C16.9269 79.7404 16.409 79.6518 16.035 79.9166C15.6609 80.1814 15.5724 80.6992 15.8371 81.0733L27.8602 98.0582V154.42C27.8602 154.878 28.2317 155.25 28.69 155.25C29.1482 155.25 29.5197 154.878 29.5197 154.42V106.038L40.7069 93.7136C41.0149 93.3743 40.9895 92.8495 40.6502 92.5415C40.3108 92.2335 39.786 92.2589 39.478 92.5982L29.5197 103.569V76.7533L44.6804 49.8864C44.9056 49.4873 44.7646 48.9811 44.3655 48.7559C43.9664 48.5307 43.4602 48.6717 43.235 49.0708L29.5197 73.3764V33.2445Z" stroke="black" stroke-opacity="0.3" stroke-width="0.5" stroke-linecap="round"/>
</svg>
