<svg width="1014" height="132" viewBox="0 0 1014 132" fill="none" xmlns="http://www.w3.org/2000/svg">
<path d="M171.104 50.9563C222.267 39.4732 251.973 -4.83491 306.06 0.433095C349.123 4.6274 363.753 33.7761 384.028 58.2561C397.904 41.236 414.092 26.3403 443.94 23.4331C475.543 20.355 498.822 34.2026 522.922 48.5381L522.923 48.5386C531.078 53.3897 539.327 58.2967 548.024 62.6225C553.113 59.5837 557.877 55.9911 562.579 52.445C574.82 43.2138 586.645 40.2968 602.697 42.2789C621.018 44.5411 629.207 52.0765 637.435 65.6764C639.826 69.6292 642.221 73.5874 644.869 77.2759L645.301 77.2642C652.712 74.4461 659.949 71.4979 667.133 68.5709C700.987 54.7785 733.689 41.4552 778.084 44.4167C828.752 47.7967 851.4 68.0202 874.155 88.3399C884.397 97.4848 894.66 106.649 907.509 114.307C919.195 121.271 933.116 127.855 946.975 134.41C979.68 149.879 1012.04 165.185 1013.88 184.939C1016.52 213.354 975.589 241.155 921.008 259.478C889.457 270.07 848.641 271.592 807.079 273.142C784.063 274.001 760.819 274.868 738.792 277.288C717.863 279.588 697.957 283.123 678.235 286.624C643.553 292.783 609.44 298.84 571.333 297.904C499.839 296.147 424.193 289.195 375.267 268.354C356.574 260.391 342.077 251.167 331.29 241.21C329.551 240.224 327.838 239.218 326.154 238.193C325.312 238.239 324.469 238.285 323.627 238.331C308.251 239.175 292.789 240.114 278.09 242.473C236.991 249.067 201.434 265.427 158.881 263.9C107.987 262.074 54.1375 254.848 19.3088 233.187C-17.3277 210.401 -31.3204 177.674 -29.9029 146.488C-28.5093 115.826 -13.7938 82.4641 27.0415 63.0566C65.5554 44.7523 124.703 61.3707 171.104 50.9563Z" fill="url(#paint0_linear_914_2101)" fill-opacity="0.2"/>
<defs>
<linearGradient id="paint0_linear_914_2101" x1="-257" y1="-578" x2="-351.629" y2="-17.6899" gradientUnits="userSpaceOnUse">
<stop stop-color="white"/>
<stop offset="1" stop-color="white" stop-opacity="0"/>
</linearGradient>
</defs>
</svg>
