<svg width="227" height="273" viewBox="0 0 227 273" fill="none" xmlns="http://www.w3.org/2000/svg">
<path fill-rule="evenodd" clip-rule="evenodd" d="M351.248 230.215C339.894 258.861 311.844 276.446 286.508 294.003C264.252 309.425 238.93 317.18 213.266 325.831C185.672 335.132 158.939 349.898 129.98 346.767C99.079 343.425 69.754 329.013 46.9967 307.849C23.7417 286.224 3.28685 258.129 0.653525 226.5C-1.90384 195.783 16.6143 167.631 33.1576 141.625C46.6468 120.42 72.0386 110.886 87.0302 90.714C105.835 65.411 104.146 24.6345 131.614 9.14405C158.517 -6.02727 195.531 -0.656506 222.582 14.2712C248.754 28.7134 251.083 66.0464 272.503 86.8897C294.674 108.464 333.838 109.915 348.731 137.021C363.959 164.738 362.897 200.827 351.248 230.215Z" fill="url(#paint0_linear_914_2072)" fill-opacity="0.2"/>
<defs>
<linearGradient id="paint0_linear_914_2072" x1="-6.00001" y1="-68.5" x2="168.791" y2="142.174" gradientUnits="userSpaceOnUse">
<stop/>
<stop offset="1" stop-opacity="0"/>
</linearGradient>
</defs>
</svg>
