<svg width="558" height="417" viewBox="0 0 558 417" fill="none" xmlns="http://www.w3.org/2000/svg">
<path fill-rule="evenodd" clip-rule="evenodd" d="M440.434 9.23234C512.341 -5.59606 595.474 -6.88581 653.324 38.3214C710.751 83.1972 712.368 166.437 731.574 236.742C749.705 303.11 787.509 371.933 761.909 435.793C736.643 498.82 660.795 519.313 603.616 555.939C550.573 589.916 503.204 636.421 440.434 641.714C374.745 647.254 303.911 630.487 255.952 585.258C210.083 542.001 21.7489 523.96 2.65607 463.872C-16.2636 404.33 96.4415 399 144.741 235.262C162.478 175.132 233.219 152.756 283.025 114.684C334.459 75.3673 377.029 22.3078 440.434 9.23234Z" fill="url(#paint0_linear_914_2091)" fill-opacity="0.2"/>
<defs>
<linearGradient id="paint0_linear_914_2091" x1="147.999" y1="-380.5" x2="487.499" y2="122" gradientUnits="userSpaceOnUse">
<stop stop-color="white"/>
<stop offset="1" stop-color="white" stop-opacity="0"/>
</linearGradient>
</defs>
</svg>
