<svg width="295" height="366" viewBox="0 0 295 366" fill="none" xmlns="http://www.w3.org/2000/svg">
<path fill-rule="evenodd" clip-rule="evenodd" d="M44.1331 0.339139C87.5967 3.78904 128.408 29.5205 156.621 62.9453C181.944 92.9448 168.064 141.664 190.586 173.842C216.622 211.04 284.121 214.426 293.754 258.87C302.768 300.458 260.858 336.551 232.751 368.377C208.162 396.219 177.629 418.451 142.478 430.16C110.818 440.707 76.1654 421.869 44.1331 431.209C-5.86438 445.788 -43.6605 513.261 -93.7611 499.045C-138.853 486.25 -133.406 416.308 -155.257 374.631C-176.121 334.838 -216.328 303.729 -219.685 258.87C-223.09 213.357 -198.333 170.71 -173.367 132.594C-149.328 95.8943 -116.493 66.9745 -79.0974 44.2352C-41.1607 21.1671 -0.0625458 -3.16888 44.1331 0.339139Z" fill="url(#paint0_linear_914_2073)" fill-opacity="0.2"/>
<defs>
<linearGradient id="paint0_linear_914_2073" x1="111" y1="-242" x2="143.31" y2="274.043" gradientUnits="userSpaceOnUse">
<stop/>
<stop offset="1" stop-opacity="0"/>
</linearGradient>
</defs>
</svg>
