<svg width="21" height="20" viewBox="0 0 21 20" fill="none" xmlns="http://www.w3.org/2000/svg">
<g id="Icon">
<path id="Vector" d="M16.8984 10.6L11.0984 16.4C10.8984 16.6 10.6984 16.6 10.4984 16.6C10.2984 16.6 10.0984 16.5 9.89844 16.4C9.59844 16.1 9.59844 15.6 9.89844 15.2L14.2984 10.8H4.69844C4.19844 10.8 3.89844 10.4 3.89844 10C3.89844 9.6 4.29844 9.2 4.69844 9.2H14.3984L9.89844 4.8C9.59844 4.5 9.59844 3.9 9.89844 3.6C10.1984 3.3 10.7984 3.3 11.0984 3.6L16.8984 9.4C17.2984 9.7 17.2984 10.3 16.8984 10.6Z" fill="white"/>
</g>
</svg>
