<svg width="20" height="20" viewBox="0 0 20 20" fill="none" xmlns="http://www.w3.org/2000/svg">
<g id="Feather Icon/arrow-left">
<path id="Vector" d="M16.7004 10C16.7004 10.5 16.3004 10.8 15.9004 10.8H6.20039L10.6004 15.2C10.9004 15.5 10.9004 16.1 10.6004 16.4C10.4004 16.6 10.2004 16.6 10.0004 16.6C9.80039 16.6 9.60039 16.5 9.40039 16.4L3.60039 10.6C3.40039 10.4 3.40039 10.2 3.40039 10C3.40039 9.8 3.50039 9.6 3.60039 9.4L9.40039 3.6C9.70039 3.3 10.3004 3.3 10.6004 3.6C10.9004 3.9 10.9004 4.4 10.6004 4.8L6.20039 9.2H15.9004C16.3004 9.2 16.7004 9.5 16.7004 10Z" fill="#1C1C1C"/>
</g>
</svg>
