<svg width="20" height="20" viewBox="0 0 20 20" fill="none" xmlns="http://www.w3.org/2000/svg">
<g id="Feather Icon/edit-2">
<path id="Vector" d="M1.69958 19.2C1.49958 19.2 1.29958 19.1 1.09958 19C0.899582 18.8 0.799582 18.5 0.899582 18.2L2.09958 13.6C2.09958 13.5 2.19958 13.3 2.29958 13.2L13.5996 1.9C14.7996 0.7 16.8996 0.7 18.0996 1.9C18.6996 2.5 18.9996 3.3 18.9996 4.2C18.9996 5.1 18.6996 5.9 18.0996 6.5L6.79958 17.7C6.69958 17.8 6.59958 17.9 6.39958 17.9L1.79958 19.1C1.79958 19.2 1.69958 19.2 1.69958 19.2ZM3.69958 14.2L2.89958 17.2L5.89958 16.4L16.8996 5.2C17.1996 4.9 17.2996 4.5 17.2996 4.1C17.2996 3.7 17.0996 3.3 16.8996 3C16.2996 2.4 15.2996 2.4 14.6996 3L3.69958 14.2Z" fill="#0A0F26"/>
</g>
</svg>
