<svg width="21" height="20" viewBox="0 0 21 20" fill="none" xmlns="http://www.w3.org/2000/svg">
<g id="Google Icon" clip-path="url(#clip0_6404_6721)">
<g id="Group">
<path id="Vector" d="M20.2623 10.1871C20.2623 9.36773 20.1958 8.7698 20.052 8.14972H10.6953V11.848H16.1874C16.0768 12.7671 15.4788 14.1512 14.15 15.0813L14.1314 15.2051L17.0898 17.497L17.2948 17.5174C19.1771 15.779 20.2623 13.2211 20.2623 10.1871Z" fill="#4285F4"/>
<path id="Vector_2" d="M10.6956 19.9313C13.3863 19.9313 15.6452 19.0454 17.2951 17.5174L14.1504 15.0813C13.3088 15.6682 12.1794 16.0779 10.6956 16.0779C8.0603 16.0779 5.82358 14.3395 5.02625 11.9366L4.90938 11.9466L1.8332 14.3273L1.79297 14.4391C3.43175 17.6945 6.79793 19.9313 10.6956 19.9313Z" fill="#34A853"/>
<path id="Vector_3" d="M5.02673 11.9366C4.81635 11.3166 4.69459 10.6521 4.69459 9.96565C4.69459 9.27909 4.81635 8.61473 5.01566 7.99466L5.01009 7.8626L1.89535 5.44366L1.79345 5.49214C1.11803 6.84305 0.730469 8.36008 0.730469 9.96565C0.730469 11.5712 1.11803 13.0882 1.79345 14.4391L5.02673 11.9366Z" fill="#FBBC05"/>
<path id="Vector_4" d="M10.6956 3.85336C12.5669 3.85336 13.8292 4.66168 14.549 5.33718L17.3615 2.59107C15.6342 0.985496 13.3863 0 10.6956 0C6.79793 0 3.43175 2.23672 1.79297 5.49214L5.01518 7.99466C5.82358 5.59183 8.0603 3.85336 10.6956 3.85336Z" fill="#EB4335"/>
</g>
</g>
<defs>
<clipPath id="clip0_6404_6721">
<rect width="19.542" height="20" fill="white" transform="translate(0.730469)"/>
</clipPath>
</defs>
</svg>
