<svg width="20" height="20" viewBox="0 0 20 20" fill="none" xmlns="http://www.w3.org/2000/svg">
<path d="M17.5002 10.8H2.5002C2.0002 10.8 1.7002 10.4 1.7002 10C1.7002 9.6 2.0002 9.2 2.5002 9.2H17.5002C18.0002 9.2 18.3002 9.6 18.3002 10C18.3002 10.4 18.0002 10.8 17.5002 10.8ZM18.3002 5C18.3002 4.5 17.9002 4.2 17.5002 4.2H2.5002C2.0002 4.2 1.7002 4.5 1.7002 5C1.7002 5.5 2.0002 5.8 2.5002 5.8H17.5002C18.0002 5.8 18.3002 5.5 18.3002 5ZM18.3002 15C18.3002 14.5 17.9002 14.2 17.5002 14.2H2.5002C2.0002 14.2 1.7002 14.6 1.7002 15C1.7002 15.4 2.1002 15.8 2.5002 15.8H17.5002C18.0002 15.8 18.3002 15.5 18.3002 15Z" fill="#fff"/>
</svg>
