<svg xmlns="http://www.w3.org/2000/svg" xmlns:xlink="http://www.w3.org/1999/xlink" width="500" zoomAndPan="magnify" viewBox="0 0 375 119.999999" height="160" preserveAspectRatio="xMidYMid meet" version="1.0"><defs><g/></defs><g fill="#0a0f26" fill-opacity="1"><g transform="translate(4.980927, 92.137271)"><g><path d="M 43.0625 -55.171875 L 43.0625 -49.65625 L 25.765625 -49.65625 L 25.765625 0 L 19.328125 0 L 19.328125 -49.65625 L 2.03125 -49.65625 L 2.03125 -55.171875 Z M 43.0625 -55.171875 "/></g></g></g><g fill="#fccf14" fill-opacity="1"><g transform="translate(50.023741, 92.137271)"><g><path d="M 16.21875 0.796875 C 13.550781 0.796875 11.238281 0.304688 9.28125 -0.671875 C 7.320312 -1.660156 5.8125 -3.101562 4.75 -5 C 3.695312 -6.894531 3.171875 -9.175781 3.171875 -11.84375 C 3.171875 -14.3125 3.695312 -16.378906 4.75 -18.046875 C 5.8125 -19.722656 7.445312 -21.09375 9.65625 -22.15625 C 11.875 -23.226562 14.769531 -24.054688 18.34375 -24.640625 C 20.832031 -25.046875 22.722656 -25.484375 24.015625 -25.953125 C 25.316406 -26.429688 26.191406 -26.972656 26.640625 -27.578125 C 27.085938 -28.179688 27.3125 -28.953125 27.3125 -29.890625 C 27.3125 -31.222656 26.847656 -32.238281 25.921875 -32.9375 C 24.992188 -33.644531 23.445312 -34 21.28125 -34 C 18.96875 -34 16.765625 -33.484375 14.671875 -32.453125 C 12.585938 -31.421875 10.78125 -30.0625 9.25 -28.375 L 8.484375 -28.375 L 4.109375 -34.984375 C 6.222656 -37.316406 8.800781 -39.140625 11.84375 -40.453125 C 14.894531 -41.765625 18.21875 -42.421875 21.8125 -42.421875 C 27.320312 -42.421875 31.304688 -41.25 33.765625 -38.90625 C 36.234375 -36.5625 37.46875 -33.238281 37.46875 -28.9375 L 37.46875 -10.875 C 37.46875 -9.007812 38.285156 -8.078125 39.921875 -8.078125 C 40.546875 -8.078125 41.160156 -8.191406 41.765625 -8.421875 L 42.296875 -8.265625 L 43.0625 -0.984375 C 42.476562 -0.609375 41.671875 -0.300781 40.640625 -0.0625 C 39.609375 0.175781 38.476562 0.296875 37.25 0.296875 C 34.757812 0.296875 32.8125 -0.175781 31.40625 -1.125 C 30.007812 -2.082031 29.015625 -3.582031 28.421875 -5.625 L 27.625 -5.703125 C 25.582031 -1.367188 21.78125 0.796875 16.21875 0.796875 Z M 19.546875 -7.015625 C 21.960938 -7.015625 23.894531 -7.828125 25.34375 -9.453125 C 26.789062 -11.078125 27.515625 -13.332031 27.515625 -16.21875 L 27.515625 -20.453125 L 26.796875 -20.609375 C 26.160156 -20.097656 25.332031 -19.671875 24.3125 -19.328125 C 23.300781 -18.992188 21.835938 -18.664062 19.921875 -18.34375 C 17.660156 -17.957031 16.03125 -17.304688 15.03125 -16.390625 C 14.039062 -15.472656 13.546875 -14.171875 13.546875 -12.484375 C 13.546875 -10.703125 14.070312 -9.34375 15.125 -8.40625 C 16.1875 -7.476562 17.660156 -7.015625 19.546875 -7.015625 Z M 19.546875 -7.015625 "/></g></g></g><g fill="#fccf14" fill-opacity="1"><g transform="translate(93.906458, 92.137271)"><g><path d="M 19.46875 0.796875 C 16.625 0.796875 14.019531 0.460938 11.65625 -0.203125 C 9.289062 -0.867188 7.269531 -1.785156 5.59375 -2.953125 C 3.925781 -4.128906 2.691406 -5.472656 1.890625 -6.984375 L 7.703125 -13.25 L 8.484375 -13.25 C 9.867188 -11.382812 11.503906 -9.984375 13.390625 -9.046875 C 15.273438 -8.117188 17.328125 -7.65625 19.546875 -7.65625 C 21.585938 -7.65625 23.125 -8.019531 24.15625 -8.75 C 25.1875 -9.476562 25.703125 -10.523438 25.703125 -11.890625 C 25.703125 -12.941406 25.328125 -13.828125 24.578125 -14.546875 C 23.835938 -15.265625 22.640625 -15.820312 20.984375 -16.21875 L 15.46875 -17.546875 C 11.34375 -18.523438 8.328125 -20.023438 6.421875 -22.046875 C 4.523438 -24.078125 3.578125 -26.648438 3.578125 -29.765625 C 3.578125 -32.359375 4.238281 -34.609375 5.5625 -36.515625 C 6.882812 -38.429688 8.742188 -39.894531 11.140625 -40.90625 C 13.546875 -41.914062 16.347656 -42.421875 19.546875 -42.421875 C 23.296875 -42.421875 26.398438 -41.878906 28.859375 -40.796875 C 31.328125 -39.710938 33.253906 -38.265625 34.640625 -36.453125 L 29.0625 -30.421875 L 28.296875 -30.421875 C 27.140625 -31.722656 25.835938 -32.675781 24.390625 -33.28125 C 22.941406 -33.882812 21.328125 -34.1875 19.546875 -34.1875 C 15.421875 -34.1875 13.359375 -32.90625 13.359375 -30.34375 C 13.359375 -29.257812 13.738281 -28.375 14.5 -27.6875 C 15.269531 -27.007812 16.625 -26.457031 18.5625 -26.03125 L 23.703125 -24.90625 C 27.921875 -24 31.003906 -22.546875 32.953125 -20.546875 C 34.910156 -18.546875 35.890625 -15.859375 35.890625 -12.484375 C 35.890625 -9.847656 35.234375 -7.519531 33.921875 -5.5 C 32.617188 -3.488281 30.734375 -1.9375 28.265625 -0.84375 C 25.796875 0.25 22.863281 0.796875 19.46875 0.796875 Z M 19.46875 0.796875 "/></g></g></g><g fill="#fccf14" fill-opacity="1"><g transform="translate(132.280254, 92.137271)"><g><path d="M 6 0 L 6 -58.34375 L 16.453125 -58.34375 L 16.453125 -25.96875 L 17.46875 -25.96875 L 29.515625 -41.625 L 40.109375 -41.625 L 40.109375 -40.75 L 25.96875 -22.484375 L 41.703125 -0.9375 L 41.703125 0 L 30.671875 0 L 17.46875 -17.546875 L 16.453125 -17.546875 L 16.453125 0 Z M 6 0 "/></g></g></g><g fill="#0a0f26" fill-opacity="1"><g transform="translate(187.692213, 90.469007)"><g><path d="M 15.640625 -27.421875 L 15.640625 -5.65625 L 45.28125 -5.65625 L 45.28125 0 L 8.796875 0 L 8.796875 -58.1875 L 44.65625 -58.1875 L 44.65625 -52.53125 L 15.640625 -52.53125 L 15.640625 -33.0625 L 41.234375 -33.0625 L 41.234375 -27.421875 Z M 15.640625 -27.421875 "/></g></g></g><g fill="#0a0f26" fill-opacity="1"><g transform="translate(236.838384, 90.469007)"><g><path d="M 18.109375 0.828125 C 13.785156 0.828125 10.410156 -0.296875 7.984375 -2.546875 C 5.554688 -4.796875 4.34375 -8.019531 4.34375 -12.21875 C 4.34375 -14.8125 4.878906 -17.003906 5.953125 -18.796875 C 7.023438 -20.585938 8.6875 -22.046875 10.9375 -23.171875 C 13.195312 -24.304688 16.144531 -25.175781 19.78125 -25.78125 C 22.957031 -26.3125 25.375 -26.910156 27.03125 -27.578125 C 28.695312 -28.242188 29.8125 -28.988281 30.375 -29.8125 C 30.945312 -30.632812 31.234375 -31.664062 31.234375 -32.90625 C 31.234375 -34.894531 30.550781 -36.421875 29.1875 -37.484375 C 27.820312 -38.546875 25.628906 -39.078125 22.609375 -39.078125 C 19.765625 -39.078125 17.328125 -38.523438 15.296875 -37.421875 C 13.265625 -36.328125 11.398438 -34.691406 9.703125 -32.515625 L 8.921875 -32.515625 L 5.734375 -37.015625 C 7.585938 -39.367188 9.945312 -41.242188 12.8125 -42.640625 C 15.675781 -44.035156 18.941406 -44.734375 22.609375 -44.734375 C 27.773438 -44.734375 31.582031 -43.597656 34.03125 -41.328125 C 36.488281 -39.054688 37.71875 -35.921875 37.71875 -31.921875 L 37.71875 -8.640625 C 37.71875 -6.191406 38.753906 -4.96875 40.828125 -4.96875 C 41.515625 -4.96875 42.175781 -5.085938 42.8125 -5.328125 L 43.375 -5.171875 L 44.125 -0.671875 C 43.65625 -0.359375 43.023438 -0.117188 42.234375 0.046875 C 41.453125 0.222656 40.648438 0.3125 39.828125 0.3125 C 37.421875 0.3125 35.597656 -0.210938 34.359375 -1.265625 C 33.128906 -2.328125 32.34375 -3.894531 32 -5.96875 L 31.15625 -6.046875 C 29.914062 -3.742188 28.234375 -2.019531 26.109375 -0.875 C 23.984375 0.257812 21.316406 0.828125 18.109375 0.828125 Z M 19.546875 -4.34375 C 21.984375 -4.34375 24.097656 -4.90625 25.890625 -6.03125 C 27.679688 -7.15625 29.050781 -8.738281 30 -10.78125 C 30.957031 -12.820312 31.4375 -15.1875 31.4375 -17.875 L 31.4375 -23.4375 L 30.6875 -23.59375 C 29.695312 -22.90625 28.5 -22.328125 27.09375 -21.859375 C 25.6875 -21.398438 23.722656 -20.984375 21.203125 -20.609375 C 18.660156 -20.265625 16.640625 -19.734375 15.140625 -19.015625 C 13.640625 -18.304688 12.570312 -17.398438 11.9375 -16.296875 C 11.300781 -15.191406 10.984375 -13.832031 10.984375 -12.21875 C 10.984375 -9.644531 11.738281 -7.6875 13.25 -6.34375 C 14.757812 -5.007812 16.859375 -4.34375 19.546875 -4.34375 Z M 19.546875 -4.34375 "/></g></g></g><g fill="#0a0f26" fill-opacity="1"><g transform="translate(282.243874, 90.469007)"><g><path d="M 20.015625 0.828125 C 17.253906 0.828125 14.695312 0.460938 12.34375 -0.265625 C 10 -0.992188 8.019531 -1.992188 6.40625 -3.265625 C 4.789062 -4.535156 3.648438 -5.96875 2.984375 -7.5625 L 6.8125 -11.546875 L 7.640625 -11.546875 C 9.078125 -9.367188 10.800781 -7.726562 12.8125 -6.625 C 14.832031 -5.519531 17.234375 -4.96875 20.015625 -4.96875 C 23.253906 -4.96875 25.710938 -5.597656 27.390625 -6.859375 C 29.078125 -8.117188 29.921875 -9.878906 29.921875 -12.140625 C 29.921875 -13.859375 29.410156 -15.28125 28.390625 -16.40625 C 27.367188 -17.539062 25.71875 -18.382812 23.4375 -18.9375 L 16.03125 -20.765625 C 12.082031 -21.722656 9.195312 -23.234375 7.375 -25.296875 C 5.5625 -27.367188 4.65625 -29.929688 4.65625 -32.984375 C 4.65625 -35.378906 5.265625 -37.457031 6.484375 -39.21875 C 7.703125 -40.976562 9.457031 -42.335938 11.75 -43.296875 C 14.050781 -44.253906 16.78125 -44.734375 19.9375 -44.734375 C 23.96875 -44.734375 27.144531 -44.164062 29.46875 -43.03125 C 31.789062 -41.90625 33.601562 -40.335938 34.90625 -38.328125 L 31.234375 -34.734375 L 30.4375 -34.734375 C 29.03125 -36.359375 27.5 -37.523438 25.84375 -38.234375 C 24.1875 -38.953125 22.21875 -39.3125 19.9375 -39.3125 C 17.039062 -39.3125 14.820312 -38.796875 13.28125 -37.765625 C 11.75 -36.734375 10.984375 -35.234375 10.984375 -33.265625 C 10.984375 -31.492188 11.523438 -30.0625 12.609375 -28.96875 C 13.703125 -27.882812 15.601562 -27.007812 18.3125 -26.34375 L 25.59375 -24.59375 C 29.40625 -23.6875 32.160156 -22.1875 33.859375 -20.09375 C 35.554688 -18 36.40625 -15.375 36.40625 -12.21875 C 36.40625 -9.644531 35.796875 -7.375 34.578125 -5.40625 C 33.359375 -3.445312 31.515625 -1.914062 29.046875 -0.8125 C 26.578125 0.28125 23.566406 0.828125 20.015625 0.828125 Z M 20.015625 0.828125 "/></g></g></g><g fill="#0a0f26" fill-opacity="1"><g transform="translate(322.834234, 90.469007)"><g><path d="M 41.828125 -20.453125 L 11.65625 -20.453125 C 11.84375 -15.117188 13.125 -11.203125 15.5 -8.703125 C 17.875 -6.210938 21.128906 -4.96875 25.265625 -4.96875 C 28.398438 -4.96875 30.921875 -5.523438 32.828125 -6.640625 C 34.742188 -7.753906 36.242188 -9.507812 37.328125 -11.90625 L 38.15625 -11.90625 L 42.375 -9.390625 C 41.101562 -6.203125 39.066406 -3.703125 36.265625 -1.890625 C 33.472656 -0.078125 29.804688 0.828125 25.265625 0.828125 C 21.023438 0.828125 17.378906 -0.00390625 14.328125 -1.671875 C 11.273438 -3.335938 8.925781 -5.867188 7.28125 -9.265625 C 5.632812 -12.660156 4.8125 -16.878906 4.8125 -21.921875 C 4.8125 -26.910156 5.679688 -31.113281 7.421875 -34.53125 C 9.160156 -37.957031 11.535156 -40.515625 14.546875 -42.203125 C 17.554688 -43.890625 21 -44.734375 24.875 -44.734375 C 30.5 -44.734375 34.890625 -43.144531 38.046875 -39.96875 C 41.203125 -36.800781 42.789062 -32.097656 42.8125 -25.859375 C 42.8125 -23.421875 42.757812 -21.78125 42.65625 -20.9375 Z M 36.40625 -25.859375 C 36.300781 -30.535156 35.265625 -33.929688 33.296875 -36.046875 C 31.335938 -38.171875 28.53125 -39.234375 24.875 -39.234375 C 21.03125 -39.234375 18.007812 -38.164062 15.8125 -36.03125 C 13.625 -33.894531 12.289062 -30.503906 11.8125 -25.859375 Z M 36.40625 -25.859375 "/></g></g></g></svg>